<?xml version="1.0" standalone="no"?>
<!DOCTYPE svg PUBLIC "-//W3C//DTD SVG 20010904//EN"
 "http://www.w3.org/TR/2001/REC-SVG-20010904/DTD/svg10.dtd">
<svg version="1.0" xmlns="http://www.w3.org/2000/svg"
 width="50.000000pt" height="50.000000pt" viewBox="0 0 50.000000 50.000000"
 preserveAspectRatio="xMidYMid meet">

<g transform="translate(0.000000,50.000000) scale(0.100000,-0.100000)"
fill="#000000" stroke="none">
<path d="M4 417 c-2 -7 -3 -91 -2 -187 l3 -175 44 -3 c28 -2 47 1 53 10 8 10
11 10 15 1 3 -10 40 -13 133 -13 93 0 130 3 133 13 4 9 7 9 15 -1 6 -9 25 -12
53 -10 l44 3 0 165 0 165 -116 3 c-107 2 -117 4 -122 22 -5 19 -14 20 -126 20
-90 0 -123 -3 -127 -13z m236 -27 c0 -19 7 -20 120 -20 l120 0 0 -150 0 -150
-30 0 c-16 0 -30 5 -30 10 0 6 -13 10 -30 10 -16 0 -30 -4 -30 -10 0 -6 -43
-10 -110 -10 -67 0 -110 4 -110 10 0 6 -13 10 -30 10 -16 0 -30 -4 -30 -10 0
-5 -13 -10 -30 -10 l-30 0 0 170 0 170 110 0 c103 0 110 -1 110 -20z"/>
<path d="M112 308 c-15 -15 -15 -43 -1 -70 10 -19 7 -25 -22 -49 l-34 -28 80
0 80 0 -33 27 c-31 26 -32 29 -20 60 19 49 -17 93 -50 60z"/>
<path d="M260 270 c0 -6 37 -10 90 -10 53 0 90 4 90 10 0 6 -37 10 -90 10 -53
0 -90 -4 -90 -10z"/>
<path d="M260 220 c0 -6 37 -10 90 -10 53 0 90 4 90 10 0 6 -37 10 -90 10 -53
0 -90 -4 -90 -10z"/>
<path d="M260 170 c0 -6 37 -10 90 -10 53 0 90 4 90 10 0 6 -37 10 -90 10 -53
0 -90 -4 -90 -10z"/>
</g>
</svg>
