<?xml version="1.0" standalone="no"?>
<!DOCTYPE svg PUBLIC "-//W3C//DTD SVG 20010904//EN"
 "http://www.w3.org/TR/2001/REC-SVG-20010904/DTD/svg10.dtd">
<svg version="1.0" xmlns="http://www.w3.org/2000/svg"
 width="430.000000pt" height="244.000000pt" viewBox="0 0 430.000000 255.000000"
 preserveAspectRatio="xMidYMid meet">

<g transform="translate(0.000000,255.000000) scale(0.100000,-0.100000)"
fill="#5f8081" stroke="none">
<path d="M220 1335 l0 -955 80 0 c78 0 80 1 80 24 0 23 -5 25 -47 28 l-48 3 0
900 0 900 1905 0 1905 0 0 -900 0 -900 -22 -3 c-17 -3 -23 -10 -23 -28 0 -22
3 -24 55 -24 l55 0 0 955 0 955 -1970 0 -1970 0 0 -955z"/>
<path d="M775 1611 c-116 -54 -178 -192 -125 -279 11 -18 48 -50 83 -72 109
-68 134 -89 152 -126 14 -31 15 -43 6 -75 -30 -101 -195 -140 -267 -62 -42 45
-43 126 -3 177 l19 25 -32 -9 c-67 -19 -94 -91 -62 -168 25 -60 82 -92 164
-92 133 0 230 76 230 181 0 64 -29 104 -125 167 -111 73 -135 98 -135 140 0
102 127 220 213 198 38 -9 41 -37 12 -119 -50 -145 -20 -195 35 -58 27 71 30
144 5 171 -24 27 -114 27 -170 1z"/>
<path d="M2219 1593 c-52 -56 -109 -128 -173 -220 l-58 -83 -58 0 c-43 0 -64
-5 -81 -20 l-24 -19 68 -1 68 0 -26 -42 c-86 -141 -126 -254 -96 -272 5 -4 43
64 85 150 l76 157 53 -7 c28 -3 59 -6 67 -6 13 0 15 -15 12 -100 -4 -81 -1
-105 12 -125 31 -47 104 -27 150 42 l23 34 7 -51 c6 -44 9 -50 31 -50 19 0 26
9 41 53 44 134 105 217 161 217 46 0 63 -32 36 -69 -16 -22 -62 -52 -97 -64
-13 -4 21 -111 42 -130 34 -31 99 -13 136 38 12 17 13 16 19 -14 8 -37 43 -57
82 -47 15 4 46 27 71 52 38 39 44 43 44 24 0 -40 18 -60 56 -60 41 0 68 12
106 48 l28 26 11 -32 c16 -46 52 -65 112 -59 40 3 55 11 81 38 30 33 31 37 24
95 -3 33 -16 93 -28 133 -12 39 -19 78 -16 87 3 9 3 20 0 25 -9 15 -34 -10
-34 -33 0 -33 -39 -98 -93 -154 -29 -30 -68 -73 -87 -95 -43 -51 -73 -67 -95
-49 -21 18 -19 43 10 100 30 58 31 70 8 70 -10 0 -33 -23 -51 -50 -45 -65
-128 -142 -150 -138 -12 2 -18 15 -20 42 -7 85 109 246 177 246 34 0 56 -29
48 -62 -4 -14 -2 -18 10 -14 8 3 17 6 19 6 13 0 1 53 -16 70 -62 62 -205 -21
-275 -162 -37 -72 -82 -118 -117 -118 -22 0 -32 8 -48 40 -29 56 -26 76 11 84
72 14 114 101 69 146 -56 56 -141 3 -206 -127 -21 -43 -40 -80 -41 -82 -19
-27 5 115 31 187 10 29 38 65 81 106 40 39 74 84 90 117 34 73 33 159 -1 159
-40 0 -173 -241 -232 -422 -54 -167 -140 -250 -166 -160 -18 63 58 412 113
520 15 29 17 42 8 51 -21 21 -53 11 -88 -26z m5 -80 c-14 -37 -38 -110 -53
-163 -30 -104 -25 -99 -103 -79 -21 5 -38 13 -38 17 0 29 192 292 213 292 3 0
-5 -30 -19 -67z m366 34 c0 -29 -61 -134 -100 -172 -27 -26 -39 -33 -34 -20
11 28 74 145 96 178 21 29 38 35 38 14z m662 -404 c15 -88 9 -107 -29 -92 -32
12 -61 36 -74 61 -7 13 0 30 33 72 49 63 52 62 70 -41z m-86 -64 c10 -12 33
-28 51 -35 37 -16 35 -40 -3 -55 -50 -18 -94 19 -94 80 0 37 18 40 46 10z"/>
<path d="M3624 1595 c-47 -51 -137 -236 -180 -370 -31 -99 -41 -119 -75 -150
-21 -19 -35 -35 -30 -35 5 0 23 13 40 29 l31 29 0 -38 c0 -49 15 -90 34 -90
14 0 25 20 79 141 30 69 59 99 92 99 35 0 41 -36 21 -116 -19 -74 -12 -100 30
-110 54 -14 125 38 168 124 23 44 14 40 -19 -10 -34 -52 -84 -98 -106 -98 -9
0 -22 7 -29 16 -11 12 -10 27 8 82 27 83 28 116 2 142 -50 50 -118 8 -178
-110 -24 -47 -46 -87 -49 -90 -9 -8 6 125 18 159 6 17 37 57 68 89 93 93 168
262 143 318 -15 33 -29 30 -68 -11z m36 -92 c-23 -73 -131 -235 -147 -220 -2
3 9 36 25 74 65 152 159 265 122 146z"/>
<path d="M1545 1436 c-27 -19 -13 -46 24 -46 31 0 58 30 46 50 -9 14 -48 12
-70 -4z"/>
<path d="M1157 1279 c-120 -63 -206 -240 -146 -300 31 -31 74 -19 132 39 26
26 45 39 41 29 -3 -10 1 -28 10 -42 13 -19 25 -25 54 -25 41 0 104 37 123 72
11 20 12 19 25 -17 14 -42 28 -55 61 -55 56 0 120 46 154 112 28 55 23 58 -9
7 -52 -79 -103 -109 -142 -82 -31 22 -22 77 29 175 54 102 54 128 2 92 -12 -9
-43 -58 -68 -109 -43 -91 -113 -175 -146 -175 -42 0 -48 55 -11 117 25 42 25
63 1 63 -7 0 -32 -27 -56 -60 -50 -69 -114 -130 -136 -130 -48 0 -36 95 25
189 61 94 151 134 167 74 4 -16 6 -34 5 -40 -4 -18 13 -16 28 2 18 21 5 60
-25 73 -37 17 -74 14 -118 -9z"/>
<path d="M707 543 c-4 -3 -7 -52 -7 -108 0 -107 -7 -125 -47 -125 -27 0 -43
27 -43 74 0 25 -4 36 -15 36 -11 0 -15 -12 -15 -50 0 -67 32 -103 88 -98 56 5
72 44 72 176 0 78 -3 102 -13 102 -8 0 -17 -3 -20 -7z"/>
<path d="M1067 470 c-44 -147 -56 -194 -52 -198 9 -10 23 11 29 43 7 35 7 35
60 35 53 0 53 0 69 -40 9 -24 22 -40 32 -40 12 0 13 4 7 18 -18 34 -61 128
-90 197 l-30 69 -25 -84z m57 -47 c7 -20 4 -23 -23 -23 -35 0 -35 0 -20 55
l11 39 13 -24 c7 -14 16 -35 19 -47z"/>
<path d="M1490 410 c0 -133 1 -140 20 -140 18 0 20 7 20 71 0 85 10 83 55 -11
25 -52 32 -60 57 -60 l28 0 0 140 0 140 -35 0 c-31 0 -35 -3 -35 -27 l-1 -28
-20 28 c-16 20 -29 27 -55 27 l-34 0 0 -140z"/>
<path d="M1984 411 c-28 -97 -37 -141 -28 -141 6 0 16 17 21 37 9 37 10 38 61
41 l52 3 16 -40 c9 -23 22 -41 30 -41 8 0 14 2 14 4 0 2 -20 48 -46 102 -25
55 -53 117 -63 138 l-17 39 -40 -142z m62 44 c20 -49 18 -55 -17 -55 -24 0
-29 4 -25 18 3 9 8 29 12 45 8 35 12 34 30 -8z"/>
<path d="M2920 479 c-12 -41 -30 -103 -40 -139 -11 -35 -17 -66 -15 -68 9 -10
23 11 29 43 7 35 7 35 60 35 53 0 54 0 70 -40 9 -22 22 -40 31 -40 14 0 12 22
-6 45 -4 6 -30 62 -57 124 l-50 114 -22 -74z m54 -56 c7 -20 4 -23 -23 -23
-35 0 -35 0 -20 55 l11 39 13 -24 c7 -14 16 -35 19 -47z"/>
<path d="M3330 540 c0 -5 9 -10 20 -10 18 0 20 -8 22 -127 l3 -128 55 -3 56
-3 -4 131 -4 130 26 0 c14 0 26 5 26 10 0 6 -40 10 -100 10 -60 0 -100 -4
-100 -10z"/>
<path d="M2430 458 c0 -46 -3 -107 -6 -135 -7 -52 -6 -53 19 -53 24 0 26 4 29
51 l3 52 45 13 c84 25 115 83 70 132 -18 19 -32 22 -90 22 l-70 0 0 -82z m124
61 c22 -11 36 -35 36 -66 0 -27 -40 -53 -81 -53 -33 0 -40 3 -35 16 3 9 6 38
6 65 0 45 2 49 25 49 13 0 35 -5 49 -11z"/>
<path d="M3800 428 c0 -62 -3 -123 -6 -135 -5 -20 -2 -23 20 -23 l26 0 0 119
c0 66 3 126 6 135 5 12 0 16 -20 16 l-26 0 0 -112z"/>
</g>
</svg>
