<?xml version="1.0" standalone="no"?>
<!DOCTYPE svg PUBLIC "-//W3C//DTD SVG 20010904//EN"
 "http://www.w3.org/TR/2001/REC-SVG-20010904/DTD/svg10.dtd">
<svg version="1.0" xmlns="http://www.w3.org/2000/svg"
 width="429.000000pt" height="239.000000pt" viewBox="0 0 429.000000 239.000000"
 preserveAspectRatio="xMidYMid meet">

<g transform="translate(0.000000,239.000000) scale(0.100000,-0.100000)"
fill="#000000" stroke="none">
<path d="M170 1295 l0 -955 80 0 80 0 0 30 c0 29 -1 30 -50 30 l-50 0 0 895 1
895 1908 0 1908 0 1 -894 2 -895 -28 -3 c-21 -2 -28 -9 -30 -30 -3 -28 -3 -28
57 -28 l61 0 0 955 0 955 -1970 0 -1970 0 0 -955z"/>
<path d="M1573 513 c-17 -3 -23 -11 -23 -31 l-1 -27 -20 28 c-16 20 -29 27
-55 27 l-34 0 0 -140 0 -140 24 0 c25 0 25 1 19 70 -3 39 -3 70 0 70 3 0 23
-31 44 -70 33 -60 42 -70 66 -70 l27 0 0 145 c0 110 -3 145 -12 144 -7 -1 -23
-4 -35 -6z"/>
<path d="M650 409 c0 -112 -9 -139 -46 -139 -27 0 -44 30 -44 81 0 23 -4 29
-21 29 -20 0 -21 -4 -16 -52 8 -66 36 -98 87 -98 63 0 74 23 78 161 4 115 3
119 -17 119 -20 0 -21 -5 -21 -101z"/>
<path d="M1032 490 c-5 -14 -22 -70 -36 -125 -15 -55 -29 -108 -32 -117 -3
-12 0 -18 9 -18 10 0 18 14 22 40 l7 40 53 0 54 0 12 -40 c9 -28 18 -40 31
-40 10 0 18 2 18 4 0 2 -22 50 -48 107 -27 57 -56 120 -64 139 l-16 35 -10
-25z m41 -122 c-5 -10 -53 -11 -53 -2 0 4 5 25 12 47 l12 40 17 -39 c9 -21 14
-42 12 -46z"/>
<path d="M1951 443 c-54 -183 -60 -213 -46 -213 8 0 17 12 21 28 11 51 12 52
63 52 48 0 49 -1 65 -40 11 -27 22 -40 35 -40 17 0 12 15 -40 124 -32 68 -59
129 -59 134 0 6 -4 13 -9 17 -6 3 -19 -25 -30 -62z m46 -34 c14 -36 10 -49
-16 -49 -27 0 -30 8 -18 46 13 42 19 43 34 3z"/>
<path d="M2888 504 c-3 -5 -20 -61 -38 -124 -17 -63 -34 -123 -36 -132 -3 -11
0 -18 9 -18 7 0 18 17 23 38 9 36 10 37 60 40 l51 3 15 -41 c10 -23 23 -40 32
-40 9 0 16 2 16 4 0 2 -22 50 -48 107 -27 57 -55 119 -64 138 -8 19 -17 30
-20 25z m29 -106 c14 -30 9 -38 -24 -38 -20 0 -23 4 -18 23 4 12 9 30 12 41 6
20 14 14 30 -26z"/>
<path d="M3270 500 c0 -5 12 -10 26 -10 l26 0 -6 -130 -6 -130 65 0 64 0 -6
130 -6 130 26 0 c15 0 27 5 27 10 0 6 -42 10 -105 10 -63 0 -105 -4 -105 -10z"/>
<path d="M3756 498 c-2 -7 -7 -70 -10 -140 l-6 -128 28 0 27 0 0 137 c0 123
-2 138 -18 141 -9 2 -19 -2 -21 -10z"/>
<path d="M2376 484 c-3 -9 -6 -69 -6 -135 l0 -119 30 0 c30 0 30 1 30 54 l0
53 41 7 c75 12 112 79 73 134 -13 19 -24 22 -88 22 -58 0 -75 -3 -80 -16z
m140 -15 c8 -6 14 -26 14 -45 0 -38 -29 -64 -72 -64 -28 0 -28 0 -28 66 l0 67
36 -6 c20 -3 42 -11 50 -18z"/>
</g>
</svg>
