<svg xmlns="http://www.w3.org/2000/svg"  viewBox="0 0 50 50" width="25px" height="25px"><path d="M 15 9 C 13.343 9 12 10.343 12 12 L 12 38 C 12 39.657 13.343 41 15 41 L 38.5 41 C 38.776 41 39 40.776 39 40.5 C 39 40.254387 38.819506 40.059616 38.585938 40.017578 L 38.601562 40.009766 C 38.601562 40.009766 37 39.402875 37 37.296875 C 37 35.046875 38.037109 34.201172 38.037109 34.201172 L 38.023438 34.201172 C 38.619643 33.652897 39 32.873939 39 32 L 39 12 C 39 10.343 37.657 9 36 9 L 15 9 z M 17 10 L 36 10 C 37.105 10 38 10.895 38 12 L 38 32 C 38 33.105 37.105 34 36 34 L 17 34 L 17 10 z M 27.013672 15.308594 C 25.465672 15.308594 24.210938 16.692391 24.210938 18.400391 C 24.210938 20.108391 25.465672 21.492188 27.013672 21.492188 C 28.561672 21.492187 29.814453 20.108391 29.814453 18.400391 C 29.814453 16.692391 28.561672 15.308594 27.013672 15.308594 z M 27 22.783203 C 25.639 22.783203 24.257172 23.078234 22.826172 24.115234 C 22.162172 24.596234 21 25.793922 21 27.169922 C 21 27.911922 21.759094 28 21.996094 28 L 32.003906 28 C 32.240906 28 33 27.911922 33 27.169922 C 33 25.793922 31.837828 24.596234 31.173828 24.115234 C 29.742828 23.078234 28.361 22.783203 27 22.783203 z M 36.498047 34.949219 C 36.245186 35.442995 36 36.201983 36 37.296875 C 36 38.636256 36.581989 39.506974 37.054688 40 L 15.642578 40 C 14.334578 40 13.143672 39.058813 13.013672 37.757812 C 12.863672 36.260813 14.034 35 15.5 35 L 36 35 C 36.17041 35 36.335398 34.976508 36.498047 34.949219 z"/></svg>