<?xml version="1.0" standalone="no"?>
<!DOCTYPE svg PUBLIC "-//W3C//DTD SVG 20010904//EN"
 "http://www.w3.org/TR/2001/REC-SVG-20010904/DTD/svg10.dtd">
<svg version="1.0" xmlns="http://www.w3.org/2000/svg"
 width="430.000000pt" height="244.000000pt" viewBox="0 0 428.000000 244.000000"
 preserveAspectRatio="xMidYMid meet">

<g transform="translate(0.000000,244.000000) scale(0.100000,-0.100000)"
fill="#326273" stroke="none">
<path d="M160 1325 l0 -955 75 0 c73 0 75 1 75 25 0 23 -3 25 -50 25 l-50 0 0
905 0 905 1910 0 1910 0 0 -905 0 -905 -25 0 c-20 0 -25 -5 -25 -25 0 -23 3
-25 50 -25 l50 0 0 955 0 955 -1960 0 -1960 0 0 -955z"/>
<path d="M702 1599 c-81 -40 -142 -134 -142 -218 0 -42 52 -98 139 -150 115
-68 151 -131 116 -206 -20 -42 -68 -70 -135 -78 -119 -16 -191 79 -145 190 18
43 13 51 -20 33 -58 -31 -68 -131 -19 -190 75 -89 264 -74 341 27 23 30 28 47
28 92 0 76 -19 101 -137 177 -53 35 -101 72 -107 83 -32 58 7 158 84 217 29
22 48 28 87 29 74 0 79 -14 45 -118 -29 -88 -33 -122 -17 -132 12 -8 47 61 64
127 15 59 7 105 -21 126 -27 19 -112 15 -161 -9z"/>
<path d="M2148 1578 c-34 -37 -132 -164 -206 -265 -21 -30 -28 -33 -72 -33
-54 0 -100 -14 -100 -30 0 -6 26 -10 60 -10 33 0 60 -2 60 -4 0 -2 -19 -35
-42 -72 -80 -132 -102 -197 -78 -234 7 -11 11 -9 19 12 6 15 40 87 76 161 l65
133 53 -7 c28 -4 59 -8 68 -8 14 -1 15 -14 12 -98 -5 -118 6 -146 56 -151 30
-3 40 3 88 54 42 44 53 52 48 33 -14 -60 33 -118 54 -67 6 13 24 58 42 101 40
100 83 147 133 147 29 0 39 -5 48 -25 15 -34 -9 -69 -66 -90 -43 -16 -45 -19
-39 -49 3 -17 14 -48 25 -68 29 -60 76 -60 139 -1 l26 24 7 -25 c8 -34 48 -60
77 -51 12 4 44 28 71 53 46 43 48 44 48 20 0 -30 28 -58 59 -58 30 0 59 16 98
53 l32 30 14 -35 c35 -84 138 -93 194 -18 28 37 28 90 -2 191 -15 50 -25 102
-22 115 3 19 1 24 -12 22 -9 -2 -18 -18 -22 -40 -8 -53 -90 -168 -118 -168 -6
0 -17 -15 -25 -33 -16 -40 -82 -97 -112 -97 -41 0 -45 47 -8 115 19 36 22 51
14 59 -9 8 -19 2 -38 -24 -67 -87 -109 -133 -133 -148 -98 -57 -68 130 37 235
34 33 51 43 77 43 39 0 57 -15 57 -48 0 -29 24 -25 28 5 4 26 -41 63 -75 63
-70 0 -169 -86 -222 -193 -37 -75 -70 -107 -111 -107 -34 0 -48 16 -65 74
l-13 44 33 6 c43 8 95 56 95 89 0 40 -36 77 -76 77 -47 0 -102 -57 -154 -161
-23 -45 -44 -79 -46 -76 -13 13 48 257 64 257 22 0 118 111 143 164 40 83 38
166 -3 151 -46 -18 -161 -231 -218 -403 -41 -126 -85 -198 -126 -208 -60 -15
-68 68 -24 268 23 108 87 305 101 314 15 9 -10 34 -33 34 -11 0 -38 -19 -60
-42z m27 -25 c-20 -49 -85 -247 -91 -278 -3 -19 -9 -35 -13 -35 -24 1 -105 28
-108 36 -5 14 103 183 155 244 43 50 71 66 57 33z m345 -21 c0 -31 -47 -115
-94 -167 -25 -27 -45 -44 -46 -37 0 18 68 150 98 189 27 37 42 42 42 15z m656
-359 c16 -68 18 -143 4 -143 -5 0 -7 -6 -4 -14 6 -16 -32 -46 -57 -46 -9 0
-28 9 -43 21 -20 16 -26 29 -26 58 0 51 8 56 44 24 l30 -28 -27 34 c-16 18
-27 36 -25 40 8 18 84 118 87 115 2 -2 10 -29 17 -61z"/>
<path d="M3137 1039 c7 -7 15 -10 18 -7 3 3 -2 9 -12 12 -14 6 -15 5 -6 -5z"/>
<path d="M3551 1574 c-52 -59 -129 -217 -178 -364 -32 -98 -37 -123 -32 -168
7 -54 24 -86 41 -76 5 3 31 52 57 107 53 114 67 130 108 125 23 -2 29 -8 31
-33 2 -16 -3 -55 -11 -85 -8 -30 -12 -63 -9 -73 7 -27 48 -40 88 -27 34 11 94
70 113 112 11 21 10 21 -6 -2 -10 -14 -34 -42 -55 -63 -29 -30 -43 -38 -65
-35 -37 4 -41 37 -14 107 12 28 21 62 21 75 0 32 -37 76 -63 76 -50 0 -127
-88 -158 -180 -6 -19 -16 -39 -20 -44 -14 -15 -10 72 5 137 11 47 22 66 64
107 94 93 175 264 153 323 -6 15 -15 27 -20 27 -5 0 -28 -21 -50 -46z m49 -48
c0 -59 -158 -310 -160 -252 -1 43 126 276 150 276 6 0 10 -11 10 -24z"/>
<path d="M1476 1421 c-21 -24 -13 -41 18 -41 26 0 61 34 51 49 -10 18 -50 13
-69 -8z"/>
<path d="M1103 1275 c-82 -35 -183 -173 -183 -248 0 -91 83 -98 158 -13 37 43
42 44 42 12 0 -78 97 -73 168 8 17 20 33 36 34 36 2 0 4 -14 4 -32 1 -34 33
-68 63 -68 34 1 99 39 121 71 l23 34 -31 -33 c-28 -29 -69 -52 -92 -52 -5 0
-16 7 -24 16 -27 27 -19 78 29 171 47 91 52 123 15 103 -22 -12 -64 -79 -81
-131 -28 -81 -122 -172 -163 -156 -24 9 -20 60 9 118 23 44 24 50 9 56 -10 4
-20 0 -26 -11 -15 -26 -99 -129 -123 -148 -29 -26 -65 -33 -76 -17 -26 39 34
182 103 244 49 45 103 49 118 10 5 -14 7 -32 4 -40 -4 -11 -2 -13 9 -9 35 13
27 62 -13 84 -25 14 -58 12 -97 -5z"/>
<path d="M643 533 c-9 -3 -13 -34 -13 -106 0 -56 -4 -108 -9 -116 -5 -7 -21
-13 -36 -13 -34 0 -45 16 -45 70 0 31 -4 42 -15 42 -20 0 -20 -71 0 -110 30
-58 111 -51 132 10 13 38 17 216 6 223 -5 2 -14 2 -20 0z"/>
<path d="M1422 403 c3 -121 5 -138 20 -141 15 -3 18 7 20 75 l3 78 43 -77 c36
-64 48 -78 68 -78 l24 0 0 140 0 140 -34 0 c-32 0 -35 -3 -38 -32 l-3 -33 -18
33 c-15 27 -23 32 -53 32 l-35 0 3 -137z"/>
<path d="M1917 407 c-41 -144 -41 -147 -28 -147 5 0 12 18 16 40 7 39 8 40 45
40 21 0 45 3 53 6 11 4 20 -8 32 -40 10 -25 24 -46 31 -46 19 0 18 3 -13 63
-14 29 -43 89 -63 134 l-36 82 -37 -132z m65 28 l17 -45 -34 0 c-19 0 -35 3
-35 6 0 16 24 84 29 84 4 0 14 -20 23 -45z"/>
<path d="M3260 531 c0 -5 9 -7 20 -4 19 5 20 0 20 -126 0 -129 0 -131 24 -137
13 -3 38 -4 57 -2 l33 3 -3 128 c-3 122 -2 127 18 127 11 0 23 5 26 10 4 6
-30 10 -94 10 -56 0 -101 -4 -101 -9z"/>
<path d="M997 450 c-47 -156 -55 -190 -46 -190 4 0 13 18 19 39 10 38 11 39
61 43 l52 3 20 -43 c12 -23 27 -42 33 -42 8 0 -6 40 -35 103 -26 56 -55 118
-63 137 l-16 35 -25 -85z m48 -6 c21 -50 19 -54 -16 -54 -31 0 -31 1 -24 37
12 65 19 67 40 17z"/>
<path d="M2358 425 c-1 -58 -2 -117 -2 -132 -1 -22 4 -29 22 -31 20 -3 22 0
22 51 l0 54 43 10 42 11 -44 1 c-35 1 -42 4 -37 17 3 9 6 38 6 65 l0 49 35 0
c64 0 94 -56 59 -110 -14 -22 -12 -22 10 3 33 35 33 61 1 92 -21 22 -33 25
-90 25 l-65 0 -2 -105z"/>
<path d="M2847 450 c-50 -168 -56 -191 -44 -187 6 2 14 18 18 36 4 17 8 34 10
36 2 2 27 5 54 6 l50 4 19 -43 c11 -23 25 -42 32 -42 8 0 -5 38 -35 103 -26
56 -55 118 -63 137 l-16 35 -25 -85z m48 -6 c21 -50 19 -54 -15 -54 -19 0 -30
5 -30 14 0 16 20 76 26 76 2 0 11 -16 19 -36z"/>
<path d="M3730 418 c0 -62 -3 -123 -6 -135 -5 -20 -2 -23 20 -23 l26 0 0 119
c0 66 3 126 6 135 5 12 0 16 -20 16 l-26 0 0 -112z"/>
</g>
</svg>
